# xmcd
#
# Track frame offsets: 
#        150
#        20832
#        38987
#        56749
#        73626
#        96056
#        113624
#        137399
#        155745
#
# Disc length: 2462 seconds
#
# Revision: 2
# Processed by: cddbd v1.5.2PL0 Copyright (c) Steve Scherf et al.
# Submitted via: ExactAudioCopyFreeDBPlugin 1.0
#
DISCID=77099c09
DTITLE=達明一派 - 我等著你回來
DYEAR=1987
DGENRE=Synthpop
TTITLE0=今夜星光燦爛
TTITLE1=溜冰滾族
TTITLE2=大亞灣之戀
TTITLE3=神奇女俠
TTITLE4=你望．我望
TTITLE5=那個下午我在舊居燒信
TTITLE6=別等
TTITLE7=上路
TTITLE8=±¡±'  ...§A¦^¨Ó
EXTD=
EXTT0=
EXTT1=
EXTT2=
EXTT3=
EXTT4=
EXTT5=
EXTT6=
EXTT7=
EXTT8=
PLAYORDER=
